<svg width="50" height="50" viewBox="0 0 50 50" fill="none" xmlns="http://www.w3.org/2000/svg">
<path d="M29.1667 18.75H43.7501C44.8959 18.75 45.8334 17.8125 45.8334 16.6667C45.8334 15.5209 44.8959 14.5834 43.7501 14.5834H29.1667C28.0209 14.5834 27.0834 15.5209 27.0834 16.6667C27.0834 17.8125 28.0209 18.75 29.1667 18.75ZM43.7501 31.25H29.1667C28.0209 31.25 27.0834 32.1875 27.0834 33.3334C27.0834 34.4792 28.0209 35.4167 29.1667 35.4167H43.7501C44.8959 35.4167 45.8334 34.4792 45.8334 33.3334C45.8334 32.1875 44.8959 31.25 43.7501 31.25ZM43.7501 22.9167H35.4168C34.2709 22.9167 33.3334 23.8542 33.3334 25C33.3334 26.1459 34.2709 27.0834 35.4168 27.0834H43.7501C44.8959 27.0834 45.8334 26.1459 45.8334 25C45.8334 23.8542 44.8959 22.9167 43.7501 22.9167ZM18.4376 16.3542C17.7917 15.7084 16.6667 16.1667 16.6667 17.1042V22.9167H6.25008C5.10425 22.9167 4.16675 23.8542 4.16675 25C4.16675 26.1459 5.10425 27.0834 6.25008 27.0834H16.6667V32.8959C16.6667 33.8334 17.7917 34.2917 18.4376 33.625L26.3334 25.7292C26.7501 25.3125 26.7501 24.6667 26.3334 24.25L18.4376 16.3542Z" fill="#131314"/>
</svg>
