<svg width="50" height="50" viewBox="0 0 50 50" fill="none" xmlns="http://www.w3.org/2000/svg">
<path d="M36.4583 9.375C32.3958 9.375 28.0208 10.2083 24.9999 12.5C21.9791 10.2083 17.6041 9.375 13.5416 9.375C10.5208 9.375 7.31242 9.83333 4.62492 11.0208C3.10409 11.7083 2.08325 13.1875 2.08325 14.875V38.375C2.08325 41.0833 4.62492 43.0833 7.24992 42.4167C9.29159 41.8958 11.4583 41.6667 13.5416 41.6667C16.7916 41.6667 20.2499 42.2083 23.0416 43.5833C24.2916 44.2083 25.7083 44.2083 26.9374 43.5833C29.7291 42.1875 33.1874 41.6667 36.4374 41.6667C38.5208 41.6667 40.6874 41.8958 42.7291 42.4167C45.3541 43.1042 47.8957 41.1042 47.8957 38.375V14.875C47.8957 13.1875 46.8749 11.7083 45.3541 11.0208C42.6874 9.83333 39.4791 9.375 36.4583 9.375V9.375ZM43.7499 35.8958C43.7499 37.2083 42.5416 38.1667 41.2499 37.9375C39.6874 37.6458 38.0624 37.5208 36.4583 37.5208C32.9166 37.5208 27.8124 38.875 24.9999 40.6458V16.6667C27.8124 14.8958 32.9166 13.5417 36.4583 13.5417C38.3749 13.5417 40.2708 13.7292 42.0833 14.125C43.0416 14.3333 43.7499 15.1875 43.7499 16.1667V35.8958Z" fill="#131314"/>
<path d="M29.1251 22.9375C28.4584 22.9375 27.8542 22.5208 27.6459 21.8542C27.3751 21.0417 27.8334 20.1458 28.6459 19.8958C31.8542 18.8542 36.0001 18.5208 39.8126 18.9583C40.6667 19.0625 41.2917 19.8333 41.1876 20.6875C41.0834 21.5417 40.3126 22.1667 39.4584 22.0625C36.0834 21.6667 32.3959 21.9792 29.6042 22.875C29.4376 22.8958 29.2709 22.9375 29.1251 22.9375V22.9375ZM29.1251 28.4792C28.4584 28.4792 27.8542 28.0625 27.6459 27.3958C27.3751 26.5833 27.8334 25.6875 28.6459 25.4375C31.8334 24.3958 36.0001 24.0625 39.8126 24.5C40.6667 24.6042 41.2917 25.375 41.1876 26.2292C41.0834 27.0833 40.3126 27.7083 39.4584 27.6042C36.0834 27.2083 32.3959 27.5208 29.6042 28.4167C29.4376 28.4583 29.2709 28.4792 29.1251 28.4792V28.4792ZM29.1251 34.0208C28.4584 34.0208 27.8542 33.6042 27.6459 32.9375C27.3751 32.125 27.8334 31.2292 28.6459 30.9792C31.8334 29.9375 36.0001 29.6042 39.8126 30.0417C40.6667 30.1458 41.2917 30.9167 41.1876 31.7708C41.0834 32.625 40.3126 33.2292 39.4584 33.1458C36.0834 32.75 32.3959 33.0625 29.6042 33.9583C29.4376 34 29.2709 34.0208 29.1251 34.0208V34.0208Z" fill="#131314"/>
</svg>
