<svg width="50" height="50" viewBox="0 0 50 50" fill="none" xmlns="http://www.w3.org/2000/svg">
<path d="M24.9999 8.33333C14.5833 8.33333 5.68742 14.8125 2.08325 23.9583C5.68742 33.1042 14.5833 39.5833 24.9999 39.5833C35.4166 39.5833 44.3124 33.1042 47.9166 23.9583C44.3124 14.8125 35.4166 8.33333 24.9999 8.33333ZM24.9999 34.375C19.2499 34.375 14.5833 29.7083 14.5833 23.9583C14.5833 18.2083 19.2499 13.5417 24.9999 13.5417C30.7499 13.5417 35.4166 18.2083 35.4166 23.9583C35.4166 29.7083 30.7499 34.375 24.9999 34.375ZM24.9999 17.7083C21.5416 17.7083 18.7499 20.5 18.7499 23.9583C18.7499 27.4167 21.5416 30.2083 24.9999 30.2083C28.4583 30.2083 31.2499 27.4167 31.2499 23.9583C31.2499 20.5 28.4583 17.7083 24.9999 17.7083Z" fill="#131314"/>
</svg>
