<svg width="31" height="12" viewBox="0 0 31 12" fill="none" xmlns="http://www.w3.org/2000/svg">
<g clip-path="url(#clip0_206_34)">
<path d="M0 6.33081C0 2.67833 2.66057 0.340332 5.67553 0.340332C8.80342 0.340332 11.1727 2.67833 11.1727 6.15277C11.1727 9.7731 8.64219 11.9974 5.46602 11.9974C2.38642 11.9974 0 9.708 0 6.33081H0ZM8.81899 6.33081C8.81899 3.16538 7.51285 1.37953 5.49795 1.37953C3.72449 1.37953 2.3537 2.85636 2.3537 6.02258C2.3537 9.15586 3.74085 10.9582 5.6911 10.9582C7.544 10.9582 8.81899 9.41546 8.81899 6.33081Z" fill="black"/>
<path d="M12.2693 11.2014L12.7047 11.1041C13.0941 11.0257 13.3496 10.8767 13.3496 10.3739V2.01251L12.2693 1.39527V0.941159L15.1067 0H15.3162V10.3739C15.3162 10.8931 15.6067 11.0555 15.993 11.1363L16.3637 11.2014V11.8351H12.2693V11.2014ZM15.4938 7.61398L17.3957 5.73166C18.0406 5.08226 17.9604 4.62815 17.2672 4.49796L16.7508 4.4007V3.76777H20.7331V4.4007L20.3172 4.48384C19.8554 4.56414 19.4315 4.79213 19.1084 5.13402L17.2991 6.91517L20.8943 11.2994L20.7495 11.8837H18.7829L15.4938 7.61398Z" fill="black"/>
<path d="M22.6031 9.35149V5.47078C22.6031 4.98373 22.41 4.78922 21.9427 4.72412L21.4426 4.64569V4.06061L24.1834 3.54297H24.5729V8.85189C24.5729 10.2158 25.3143 10.5075 26.0527 10.5075C26.6574 10.5019 27.2488 10.3279 27.7615 10.0048V5.47078C27.7615 4.98373 27.5683 4.77275 27.0847 4.72412L26.5527 4.64569V4.06061L29.3426 3.54297H29.7452V10.1468C29.7452 10.5523 29.9548 10.7475 30.4548 10.8126L31 10.8613V11.4644L28.2428 12.0001H27.8721V10.3742C27.2755 11.2503 26.2116 11.9977 24.9903 11.9977C23.8127 11.9977 22.6031 11.1695 22.6031 9.35149V9.35149Z" fill="black"/>
</g>
<defs>
<clipPath id="clip0_206_34">
<rect width="31" height="12" fill="white"/>
</clipPath>
</defs>
</svg>
