<svg width="50" height="50" viewBox="0 0 50 50" fill="none" xmlns="http://www.w3.org/2000/svg">
<path d="M43.7499 16.6667C40.7291 16.6667 39.0416 19.6667 39.7291 21.8958L32.3333 29.3125C31.7083 29.125 30.7916 29.125 30.1666 29.3125L24.8541 24C25.5624 21.7708 23.8749 18.75 20.8333 18.75C17.8124 18.75 16.1041 21.75 16.8124 24L7.31242 33.4792C5.08325 32.7917 2.08325 34.4792 2.08325 37.5C2.08325 39.7917 3.95825 41.6667 6.24992 41.6667C9.27075 41.6667 10.9583 38.6667 10.2708 36.4375L19.7499 26.9375C20.3749 27.125 21.2916 27.125 21.9166 26.9375L27.2291 32.25C26.5208 34.4792 28.2083 37.5 31.2499 37.5C34.2708 37.5 35.9791 34.5 35.2708 32.25L42.6874 24.8542C44.9166 25.5417 47.9166 23.8542 47.9166 20.8333C47.9166 18.5417 46.0416 16.6667 43.7499 16.6667Z" fill="#131314"/>
<path d="M31.2499 18.75L33.2083 14.4375L37.4999 12.5L33.2083 10.5625L31.2499 6.25L29.3333 10.5625L24.9999 12.5L29.3333 14.4375L31.2499 18.75ZM7.29159 22.9167L8.33325 18.75L12.4999 17.7083L8.33325 16.6667L7.29159 12.5L6.24992 16.6667L2.08325 17.7083L6.24992 18.75L7.29159 22.9167Z" fill="#131314"/>
</svg>
