<svg width="20" height="20" viewBox="0 0 20 20" fill="none" xmlns="http://www.w3.org/2000/svg">
<path fill-rule="evenodd" clip-rule="evenodd" d="M20 3.22304C19.2651 3.5577 18.4739 3.78401 17.644 3.88512C18.4915 3.36509 19.1419 2.54047 19.4482 1.55817C18.6547 2.0397 17.7777 2.39 16.841 2.5778C16.0944 1.76041 15.0272 1.25 13.8464 1.25C11.5818 1.25 9.74467 3.13395 9.74467 5.45729C9.74467 5.78714 9.77989 6.10735 9.85032 6.41552C6.4401 6.23977 3.41726 4.56648 1.39226 2.01803C1.03891 2.6416 0.836995 3.36509 0.836995 4.13552C0.836995 5.59452 1.56131 6.8826 2.66244 7.63739C1.99096 7.61692 1.35704 7.42551 0.802956 7.11252V7.16429C0.802956 9.20354 2.21753 10.9045 4.09579 11.2897C3.75184 11.3884 3.3891 11.4378 3.01461 11.4378C2.75049 11.4378 2.49223 11.4125 2.24218 11.3631C2.76458 13.034 4.27891 14.2511 6.07501 14.2836C4.671 15.4127 2.90074 16.0856 0.979043 16.0856C0.647997 16.0856 0.320479 16.0664 0 16.0279C1.81605 17.2196 3.9737 17.9166 6.28984 17.9166C13.8381 17.9166 17.9644 11.5064 17.9644 5.94604C17.9644 5.76306 17.9609 5.58009 17.9539 5.40071C18.7556 4.80724 19.4517 4.0669 20 3.22304V3.22304Z" fill="#00D1FF"/>
</svg>
