<svg width="60" height="24" viewBox="0 0 60 24" fill="none" xmlns="http://www.w3.org/2000/svg">
<path fill-rule="evenodd" clip-rule="evenodd" d="M37.6385 18.0685L38.1583 17.955C38.6232 17.8635 38.9282 17.6897 38.9282 17.1031V7.34797L37.6385 6.62784V6.09804L41.0259 5H41.276V17.1031C41.276 17.7089 41.6229 17.8983 42.0841 17.9926L42.5267 18.0685V18.8078H37.6385V18.0685ZM41.488 13.8831L43.7587 11.6871C44.5286 10.9294 44.4328 10.3996 43.6053 10.2477L42.9888 10.1342V9.39582H47.743V10.1342L47.2465 10.2312C46.6951 10.3249 46.1891 10.5909 45.8034 10.9898L43.6434 13.0678L47.9355 18.1829L47.7625 18.8646H45.4147L41.488 13.8831ZM29.7666 5.39722C26.1673 5.39722 22.991 8.12493 22.991 12.3862C22.991 16.3264 25.84 18.9973 29.5165 18.9973C33.3083 18.9973 36.3294 16.4023 36.3294 12.1785C36.3294 8.12493 33.5008 5.39722 29.7666 5.39722ZM29.5546 6.60964C31.9601 6.60964 33.5194 8.69317 33.5194 12.3862C33.5194 15.9851 31.9973 17.7849 29.7852 17.7849C27.4569 17.7849 25.8009 15.6822 25.8009 12.0266C25.8009 8.33264 27.4374 6.60964 29.5546 6.60964ZM13.9474 9.95665V11.7556C12.3451 11.7575 10.809 12.3848 9.67593 13.4998C8.76151 14.3997 8.16992 15.5579 7.97464 16.8003H13.9474V18.5992H0V16.8003H6.00478C5.80925 15.5496 5.21422 14.3835 4.29386 13.4778C3.1549 12.357 1.61072 11.7264 0 11.7245V9.92188C1.43891 9.92287 2.85029 10.31 4.08222 11.0417C5.31415 11.7734 6.31996 12.8219 6.99138 14.0743C7.66185 12.8312 8.66352 11.7913 9.88896 11.0659C11.1144 10.3405 12.5174 9.95701 13.9474 9.95665ZM49.9755 11.3825V15.91C49.9755 18.0311 51.4196 18.9974 52.8255 18.9974C54.2834 18.9974 55.5536 18.1253 56.2658 17.1032V19.0001H56.7084L60 18.3751V17.6715L59.3491 17.6147C58.7522 17.5388 58.5021 17.311 58.5021 16.8379V9.1333H58.0213L54.6907 9.73722V10.4198L55.3258 10.5113C55.9032 10.5681 56.1338 10.8142 56.1338 11.3825V16.6723C55.5218 17.0492 54.8157 17.2522 54.0937 17.2588C53.2123 17.2588 52.3271 16.9184 52.3271 15.3272V9.1333H51.8622L48.5901 9.73722V10.4198L49.187 10.5113C49.7449 10.5873 49.9755 10.8142 49.9755 11.3825Z" fill="black"/>
<path d="M6.97375 9.42609C8.2052 9.42609 9.20348 8.4437 9.20348 7.23185C9.20348 6.02 8.2052 5.0376 6.97375 5.0376C5.7423 5.0376 4.74402 6.02 4.74402 7.23185C4.74402 8.4437 5.7423 9.42609 6.97375 9.42609Z" fill="black"/>
</svg>
